<?xml version="1.0" standalone="no"?>
<!DOCTYPE svg PUBLIC "-//W3C//DTD SVG 20010904//EN"
 "http://www.w3.org/TR/2001/REC-SVG-20010904/DTD/svg10.dtd">
<svg version="1.0" xmlns="http://www.w3.org/2000/svg"
 width="175.000000pt" height="175.000000pt" viewBox="0 0 175.000000 175.000000"
 preserveAspectRatio="xMidYMid meet">
<metadata>
Created by potrace 1.11, written by Peter Selinger 2001-2013
</metadata>
<g transform="translate(0.000000,175.000000) scale(0.100000,-0.100000)"
fill="#000000" stroke="none">
<path d="M80 1259 c-37 -15 -70 -50 -70 -73 1 -20 2 -19 23 5 43 52 121 75
147 44 18 -22 24 -91 10 -125 -9 -22 -21 -31 -46 -36 -19 -3 -45 -15 -59 -26
l-25 -20 9 24 c5 13 25 52 45 88 35 64 45 100 27 100 -5 0 -29 -39 -53 -87
-25 -49 -55 -107 -67 -131 -24 -44 -23 -64 3 -43 10 8 16 9 21 1 19 -31 113 8
143 60 9 16 22 30 28 30 6 0 19 15 28 33 10 19 16 23 13 11 -7 -33 10 -56 33
-44 13 7 21 7 25 0 9 -14 58 -13 73 2 9 9 12 9 12 0 0 -8 21 -12 65 -12 56 0
66 3 76 23 14 24 39 46 54 47 7 0 7 -3 0 -8 -10 -7 -35 -48 -35 -57 0 -15 30
-2 35 15 3 11 16 25 27 31 19 10 20 9 13 -7 -21 -54 -20 -57 13 -40 36 19 50
36 28 36 -9 0 -16 6 -16 14 0 13 -51 31 -77 27 -7 -1 -13 3 -13 9 0 21 -18 9
-30 -20 -7 -17 -21 -35 -31 -41 -22 -12 -23 -3 -4 31 23 40 18 46 -27 42 -35
-3 -50 -11 -80 -43 -37 -39 -61 -48 -73 -29 -4 6 7 15 23 21 53 18 51 69 -1
55 -16 -4 -32 -21 -46 -48 -15 -30 -20 -35 -18 -18 3 14 8 34 12 44 7 16 5 18
-13 14 -13 -4 -23 0 -26 9 -3 8 -10 11 -16 8 -5 -3 -10 2 -10 12 -1 10 -9 27
-18 39 -36 42 -80 53 -132 33z m280 -113 c0 -2 -8 -10 -17 -17 -16 -13 -17
-12 -4 4 13 16 21 21 21 13z m110 -17 c0 -20 -21 -49 -35 -49 -20 0 -19 19 2
42 18 20 33 24 33 7z m-335 -104 c-38 -33 -65 -44 -65 -27 0 8 22 26 60 46 44
24 46 16 5 -19z"/>
<path d="M917 1165 c-33 -24 -31 -61 4 -95 18 -16 41 -30 52 -30 30 0 77 49
77 80 0 35 -28 60 -55 50 -11 -4 -29 -4 -40 0 -13 5 -28 3 -38 -5z m67 -29
c43 17 56 -29 15 -54 -25 -16 -56 -7 -70 19 -13 26 6 55 26 39 7 -6 20 -8 29
-4z"/>
<path d="M866 1029 c-18 -14 -32 -18 -44 -13 -49 22 -71 10 -72 -41 -1 -51
-21 -67 -82 -63 -29 1 -56 7 -59 12 -8 10 -76 17 -96 9 -10 -4 -13 -32 -13
-109 0 -92 2 -104 18 -105 56 -4 77 0 87 15 8 13 13 8 26 -31 11 -33 26 -55
49 -70 31 -22 43 -23 210 -23 185 0 207 5 210 45 4 37 0 45 -25 57 -22 10 -25
17 -25 67 0 31 6 64 14 73 7 10 11 31 8 48 -3 24 -20 42 -86 90 -44 33 -84 60
-87 60 -4 0 -18 -9 -33 -21z m119 -82 c56 -43 61 -47 50 -47 -9 0 -28 14 -82
60 -7 5 -23 15 -37 21 -22 10 -31 6 -86 -36 -34 -26 -63 -45 -66 -43 -2 3 27
27 64 55 75 57 67 58 157 -10z m-23 -41 l56 -45 -1 -70 c-1 -71 -1 -71 -28
-71 -27 0 -28 2 -31 63 l-3 62 -50 3 c-35 2 -52 -1 -60 -12 -10 -13 -15 -12
-38 8 l-26 23 57 41 c31 22 59 41 62 41 3 1 30 -19 62 -43z m-385 -82 c1 -71
0 -75 -20 -72 -20 3 -22 10 -24 76 -2 69 -1 72 21 72 21 0 23 -4 23 -76z m136
45 c12 -7 49 -35 82 -63 33 -28 70 -60 82 -70 13 -11 23 -26 23 -33 0 -26 -32
-12 -101 44 -55 44 -73 53 -82 44 -9 -10 -2 -21 33 -52 25 -21 60 -49 77 -61
18 -13 33 -25 33 -28 0 -3 -21 -4 -47 -3 -27 1 -61 2 -76 2 -37 1 -73 41 -81
92 -5 29 -12 43 -26 46 -16 4 -20 14 -20 49 l0 44 41 0 c22 0 50 -5 62 -11z
m209 -58 c4 -1 7 -16 6 -35 -1 -34 -1 -34 -24 -18 -39 28 -43 64 -6 57 9 -2
20 -4 24 -4z m144 -134 c18 -17 -20 -31 -89 -31 -74 -1 -74 -1 -58 20 13 18
26 21 78 20 34 -1 65 -5 69 -9z"/>
<path d="M1259 729 c-24 -20 -19 -21 28 -2 9 3 14 2 12 -3 -3 -5 -16 -30 -29
-56 -13 -27 -27 -49 -32 -49 -7 -1 -16 -3 -35 -8 -5 -2 0 -5 9 -9 16 -6 15
-12 -9 -59 -26 -50 -27 -73 -3 -58 5 3 22 29 36 56 27 54 29 56 87 62 43 5 45
0 17 -45 -38 -63 -18 -77 40 -28 19 16 45 30 57 30 12 0 25 5 29 11 4 8 9 7
16 -2 8 -11 11 -12 15 -1 6 17 44 52 55 52 5 0 1 -11 -8 -25 -26 -39 -8 -43
28 -6 33 34 48 29 28 -8 -9 -18 -8 -21 8 -21 10 0 23 5 29 11 8 8 13 8 17 0
10 -16 59 -13 82 5 18 15 18 15 -6 11 -14 -2 -31 -6 -39 -8 -28 -8 -20 17 10
28 33 13 38 45 8 51 -17 3 -59 -29 -59 -46 0 -6 -5 -14 -12 -18 -7 -5 -9 -2
-5 9 7 17 -34 36 -68 31 -11 -2 -23 2 -27 9 -5 8 -12 6 -26 -6 -17 -16 -21
-16 -32 -2 -15 18 -41 19 -59 3 -7 -7 -3 11 9 41 32 83 6 86 -30 3 -25 -55
-33 -62 -82 -62 l-37 0 25 55 c14 30 23 59 19 65 -10 16 -41 11 -66 -11z m211
-113 c0 -7 -8 -21 -19 -30 -15 -14 -19 -15 -24 -3 -7 18 21 60 34 52 5 -4 9
-12 9 -19z m235 14 c-3 -5 -12 -10 -18 -10 -7 0 -6 4 3 10 19 12 23 12 15 0z
m-308 -62 c-21 -14 -28 -9 -15 12 9 13 14 16 20 7 4 -6 2 -15 -5 -19z"/>
</g>
</svg>
